<?xml version="1.0" encoding="utf-8"?>
<!-- Generator: Adobe Illustrator 24.2.1, SVG Export Plug-In . SVG Version: 6.00 Build 0)  -->
<svg version="1.1" id="Calque_1" xmlns="http://www.w3.org/2000/svg" xmlns:xlink="http://www.w3.org/1999/xlink" x="0px" y="0px"
	 viewBox="0 0 512 512" style="enable-background:new 0 0 512 512;" xml:space="preserve">
<style type="text/css">
	.st0{fill:#727272;}
</style>
<g id="Ai-2">
	<path class="st0" d="M424,336c-1.4,0-2.8,0.2-4.3,0.4l-30.1-30.1c-1.5-1.5-3.5-2.3-5.7-2.3H264v-96h120c2.1,0,4.2-0.8,5.7-2.3
		l30.1-30.1c1.4,0.2,2.8,0.4,4.3,0.4c17.9,0.2,32.6-14.1,32.8-32c0.2-17.9-14.1-32.6-32-32.8s-32.6,14.1-32.8,32
		c-0.1,9.9,4.3,19.3,12,25.5L380.7,192h-81.4l26.3-26.3c1.5-1.5,2.3-3.5,2.3-5.7v-40c0-0.4-0.1-0.7-0.2-1.1
		c17.1-4.3,27.6-21.7,23.3-38.8s-21.7-27.6-38.8-23.3S284.7,78.5,289,95.7c2.9,11.4,11.8,20.4,23.3,23.3c-0.1,0.4-0.2,0.7-0.2,1.1
		v36.7L276.7,192H244l-44-58.7V72c0-0.4-0.1-0.7-0.2-1.1c17.1-4.3,27.6-21.7,23.3-38.8S201.4,4.6,184.2,8.9S156.7,30.5,161,47.7
		c2.9,11.4,11.8,20.4,23.3,23.3c-0.1,0.4-0.2,0.7-0.2,1.1v64c0,1.7,0.6,3.4,1.6,4.8L224,192h-92.7L108,168.7
		c13.6-11.2,15.5-31.2,4.3-44.8c-11.2-13.6-31.2-15.5-44.8-4.3s-15.5,31.2-4.3,44.8c6.1,7.4,15.2,11.6,24.7,11.6
		c1.4,0,2.8-0.2,4.3-0.4l30.1,30.1c1.5,1.5,3.5,2.3,5.7,2.3h120v96h-72v-24c0-4.4-3.6-8-8-8s-8,3.6-8,8v24h-32
		c-2.1,0-4.2,0.8-5.7,2.3l-30.1,30.1c-1.4-0.2-2.8-0.4-4.3-0.4c-17.9-0.2-32.6,14.1-32.8,32s14.1,32.6,32,32.8s32.6-14.1,32.8-32
		c0.1-9.9-4.3-19.3-12-25.5l23.3-23.3h81.4l-26.3,26.3c-1.5,1.5-2.3,3.5-2.3,5.7v40c0,0.4,0.1,0.7,0.2,1.1
		c-17.1,4.3-27.6,21.7-23.3,38.8c4.3,17.1,21.7,27.6,38.8,23.3s27.6-21.7,23.3-38.8c-2.9-11.4-11.8-20.4-23.3-23.3
		c0.1-0.4,0.2-0.7,0.2-1.1v-36.7l35.3-35.3H268l44,58.7V440c0,0.4,0.1,0.7,0.2,1.1c-17.1,4.3-27.6,21.7-23.3,38.8
		c4.3,17.1,21.7,27.6,38.8,23.3s27.6-21.7,23.3-38.8c-2.9-11.4-11.8-20.4-23.3-23.3c0.1-0.4,0.2-0.7,0.2-1.1v-64
		c0-1.7-0.6-3.4-1.6-4.8L288,320h92.7l23.3,23.3c-13.6,11.2-15.5,31.2-4.3,44.8c11.2,13.6,31.2,15.5,44.8,4.3s15.5-31.2,4.3-44.8
		C442.7,340.2,433.6,335.9,424,336z M424,128c8.8,0,16,7.2,16,16s-7.2,16-16,16s-16-7.2-16-16S415.2,128,424,128z M304,88
		c0-8.8,7.2-16,16-16s16,7.2,16,16s-7.2,16-16,16S304,96.8,304,88z M176,40c0-8.8,7.2-16,16-16s16,7.2,16,16s-7.2,16-16,16
		S176,48.8,176,40z M72,144c0-8.8,7.2-16,16-16s16,7.2,16,16s-7.2,16-16,16S72,152.8,72,144z M88,384c-8.8,0-16-7.2-16-16
		s7.2-16,16-16s16,7.2,16,16S96.8,384,88,384z M208,424c0,8.8-7.2,16-16,16s-16-7.2-16-16s7.2-16,16-16S208,415.2,208,424z M336,472
		c0,8.8-7.2,16-16,16s-16-7.2-16-16s7.2-16,16-16S336,463.2,336,472z M424,384c-8.8,0-16-7.2-16-16s7.2-16,16-16s16,7.2,16,16
		S432.8,384,424,384z"/>
	<path class="st0" d="M168,264c4.4,0,8-3.6,8-8v-8c0-4.4-3.6-8-8-8s-8,3.6-8,8v8C160,260.4,163.6,264,168,264z"/>
	<path class="st0" d="M88,104c4.4,0,8-3.6,8-8V80c0-4.4-3.6-8-8-8s-8,3.6-8,8v16C80,100.4,83.6,104,88,104z"/>
	<path class="st0" d="M432,408c-4.4,0-8,3.6-8,8v8c0,4.4,3.6,8,8,8s8-3.6,8-8v-8C440,411.6,436.4,408,432,408z"/>
</g>
</svg>
